# xmcd
#
# Track frame offsets:
#	150
#	19718
#	39143
#	61460
#	92233
#	109605
#	126847
#	141560
#	155613
#	174719
#	192443
#	214250
#
# Disc length: 3131 seconds
#
# Revision: 1
# Processed by: cddbd v1.5.1PL0 Copyright (c) Steve Scherf et al.
# Submitted via: EasyCDDAExtractor 6.5.0.1
#
DISCID=ad0c390c
DTITLE=Chris Rea - Dancing down the stony road - 2
DYEAR=1900
DGENRE=
TTITLE0=Ride on
TTITLE1=When the Good Lord Talked To Jesus
TTITLE2=Qualified
TTITLE3=Sun is Rising
TTITLE4=Someday my peace will come
TTITLE5=Got to be moving on
TTITLE6=Aint Going Down This Way
TTITLE7=Changing Times
TTITLE8=The Hustler
TTITLE9=Give That Girl A Diamond
TTITLE10=The Blue Cafe
TTITLE11=The Road To Hell
EXTD=
EXTT0=
EXTT1=
EXTT2=
EXTT3=
EXTT4=
EXTT5=
EXTT6=
EXTT7=
EXTT8=
EXTT9=
EXTT10=
EXTT11=
PLAYORDER=
